<?xml version="1.0" encoding="UTF-8" standalone="no"?>
<!DOCTYPE svg PUBLIC "-//W3C//DTD SVG 1.1//EN" "http://www.w3.org/Graphics/SVG/1.1/DTD/svg11.dtd">
<svg version="1.1" xmlns="http://www.w3.org/2000/svg" xmlns:xlink="http://www.w3.org/1999/xlink" preserveAspectRatio="xMidYMid meet" viewBox="0 0 640 640" width="320" height="320"><defs><path d="M223.34 45.52L233.47 79.4L266.24 84.27L237.9 72.36L233.89 59.1L279.43 86.52L234.76 100.28L237.27 84.94L226.03 84.12L228.04 82.85L226.19 76.69L206.89 88.93L230.07 90.62L227.04 109.14L294.48 88.35L223.34 45.52Z" id="d1oHbhX4T"></path><path d="M639.37 49.37C638.45 46.72 638.51 43.89 638.56 41.06C638.81 39.2 636.33 38.87 636.08 40.73C635.16 45.35 634.3 54.38 638.93 57.51C640.71 58.38 642.82 56.76 642.09 55.09C641.72 53.14 640.02 51.66 639.37 49.37Z" id="h1ksnq6azW"></path><path d="M642.94 14.81C644.27 14.36 643.62 12.06 642.3 12.52C638.68 13.62 635.69 14.81 633.42 17.67C631.51 20.26 629.35 24.71 630.53 27.7C630.99 29.02 632.85 29.27 633.63 28.11C635.47 26.14 635.52 23.31 636.47 20.91C637.49 17.89 640.3 15.73 642.94 14.81Z" id="b1DXumKDi"></path><path d="M604.4 3.14C604.73 0.66 606.02 -2.01 606.97 -4.41C607.48 -5.92 605.43 -7.13 604.92 -5.62C602.49 -1.52 598.06 5.79 600.95 10.27C601.67 11.94 603.27 11.83 603.78 10.32C604.37 8.19 604.08 5.63 604.4 3.14Z" id="al5BOg9iU"></path><path d="M192.71 94.17C189.1 95.27 184.86 96.29 181.06 96.43C178.57 96.1 178.09 99.83 180.57 100.15C184.29 100.64 188.09 100.5 191.63 100.02C195.16 99.54 199.67 98.86 202.2 96.36C203.34 94.93 203.04 92.36 201.18 92.12C198.08 91.71 195.35 93.25 192.71 94.17Z" id="b1XZY9YOXJ"></path><path d="M151.64 70.49C149.45 65.47 148.86 60.35 149.24 55.04C149.57 52.55 145.84 52.07 145.52 54.55C144.03 63.5 146.21 75.78 151.87 83.14C152.95 84.55 155.95 83.36 155.57 81.42C154.82 77.54 153.01 74.46 151.64 70.49Z" id="ayrDoFNkj"></path><path d="M630.55 58.94C627.52 57.91 625.56 56.08 623.32 53.89C621.89 52.76 621.02 54.54 621.48 55.86C625.36 62.36 632.48 65.82 639.63 64.23C641.66 63.23 642.06 60.13 639.85 60.16C636.75 59.75 633.57 59.96 630.55 58.94Z" id="a2ts6PXm8S"></path><path d="M605.82 40.56C604.71 36.94 603.61 33.33 603.74 29.88C603.55 28.91 602.31 28.74 601.88 29.63C600.72 36.11 601.09 45.31 605.06 51.19C606.49 52.32 608.86 51.05 608.75 49.46C608.54 46.28 607 43.55 605.82 40.56Z" id="ayX62w0B6"></path><path d="M150.98 29.71C151.82 25.72 153.54 22.16 155.27 18.6C156.14 16.82 153.47 15.52 152.33 16.95C147.8 22.67 142.62 33.35 145.44 40.66C146.17 42.33 149 42.38 149.52 40.87C150.63 37.23 150.22 33.08 150.98 29.71Z" id="bRMTXcKj5"></path><path d="M170.9 0.45C167.45 0.31 160.73 1.01 159.27 4.92C158.41 6.7 160.11 8.18 161.97 8.43C163.56 8.32 164.26 7.78 165.31 6.97C166.37 6.16 168.04 5.44 169.63 5.33C172.54 4.76 176.62 4.98 178.85 7.17C179.66 8.22 181.07 7.14 180.26 6.09C177.83 2.93 174.97 0.66 170.9 0.45Z" id="aeb4c09IC"></path><path d="M192.55 13.38C191.13 12.24 189.02 13.86 189.75 15.53C190.66 18.18 192.63 20.01 193.55 22.66C194.46 25.3 194.68 28.48 194.27 31.59C194.38 33.18 196.86 33.5 197.38 31.99C198.11 26.41 198.08 16.94 192.55 13.38Z" id="aM4DhQyVs"></path><path d="M197.91 54.46C194.61 60.34 192.48 67 189.46 73.23C188.67 74.39 190.72 75.61 191.5 74.45C196.04 68.73 200.03 62.31 201.28 55.22C201.87 53.09 198.77 52.68 197.91 54.46Z" id="bgsKWPWFm"></path><path d="M177.31 86.47C173.83 91.38 169.19 95.51 164.9 99.36C163.49 100.44 165.38 102.9 166.78 101.82C172.23 98.74 178.39 95.13 180.52 88.47C181.11 86.34 178.44 85.04 177.31 86.47Z" id="b5KFFWyXZ"></path><path d="M149.17 108.66C144.5 110.57 140.18 112.22 135.14 112.19C133.55 112.3 133.3 114.16 134.82 114.67C140.67 115.75 146.6 116.21 151.32 111.47C152.46 110.04 150.84 107.93 149.17 108.66Z" id="a1yocjWHz"></path><path d="M104.09 113.18C100.1 112.34 96.81 110.96 93.25 109.23C91.47 108.37 89.82 111.31 91.25 112.44C94.11 114.71 97.13 115.74 100.42 117.11C104.33 118.57 108.24 120.03 112.58 120.6C114.45 120.84 116.09 117.9 114.04 116.69C110.83 114.69 107.73 114.28 104.09 113.18Z" id="b1eavhFJgq"></path><path d="M67.96 80.68C66.88 79.28 64.77 80.9 65.5 82.57C67.31 85.65 69.73 88.8 71.19 92.15C72.73 94.87 73.56 98.14 75.45 100.59C77.42 102.43 80.14 100.89 79.76 98.95C79.07 92.23 72.7 85.41 67.96 80.68Z" id="c1Cd2gIDcv"></path><path d="M54.75 48.98C54.91 47.74 53.05 47.5 52.89 48.74C51.73 55.21 54.37 61.55 59.2 65.66C59.73 66.36 61.49 65.01 61.03 63.69C58.85 58.67 54.64 54.65 54.75 48.98Z" id="abdDfuRSB"></path><path d="M52.33 24.06C52.82 20.33 54.2 17.04 55.57 13.75C56.36 12.59 54.31 11.38 53.52 12.54C48.99 18.26 43.27 28.23 49.01 34.98C49.82 36.03 52.38 35.74 52.28 34.14C52.41 30.69 52.2 27.51 52.33 24.06Z" id="d21FV42aeK"></path><path d="M55.12 5.17C54.88 7.04 56.93 8.25 58.25 7.79C61.59 6.34 63.86 3.48 66.86 2.29C71.17 0.65 76.22 0.68 80.64 0.63C83.2 0.33 83.26 -2.5 81.4 -2.75C73.41 -4.42 57.47 -5.56 55.12 5.17Z" id="booIZ1ik9"></path><path d="M104.03 2.74C102.3 -0.96 99.77 -5.71 96.56 -7.7C94.51 -8.92 92.4 -7.3 93.05 -5.01C94.99 1.87 102.38 5.68 102.3 13.56C102.4 15.15 104.97 14.85 105.48 13.34C105.97 9.62 105.13 6.35 104.03 2.74Z" id="d1lRdeDll"></path><path d="M106.2 44.04C106.95 40.67 108.41 36.76 107.22 33.76C106.77 32.44 104.64 31.85 104.12 33.36C102.56 35.68 102.77 38.86 102.45 41.34C102.04 44.44 101.55 48.16 100.53 51.19C99.93 53.32 102.33 54.26 103.2 52.48C104.49 49.81 105.79 47.14 106.2 44.04Z" id="h3QgmUbGce"></path><path d="M92.29 65.88C86.95 70.55 83.31 76.7 78.05 80.74C76.99 81.55 78.07 82.95 79.12 82.14C85.01 78.18 92.4 74.73 94.88 67.8C95.4 66.29 93.43 64.45 92.29 65.88Z" id="a1ptQHv2K"></path><path d="M61.89 83.68C59.14 83 55.44 84.72 52.26 84.94C49.07 85.15 45.62 85.02 42.17 84.88C40.31 84.64 39.9 87.74 41.76 87.98C45.75 88.82 49.48 89.31 53.2 89.8C56.65 89.93 61.07 89.88 63.34 87.02C64.47 85.59 63.13 83.84 61.89 83.68Z" id="c4TNoWbq9"></path><path d="M12.5 82.58C10.71 81.71 8.88 83.68 10.58 85.17C16.3 89.7 22.2 95.2 30.16 94.67C32.02 94.91 32.43 91.81 30.65 90.95C24.33 88.54 18.02 86.14 12.5 82.58Z" id="bivXvue9o"></path><path d="M11.04 4.46C8.64 3.51 4.65 2.67 2.55 4.29C1.49 5.1 1.52 7.31 3.03 7.83C5.16 8.42 7.37 8.39 9.23 8.64C11.37 9.23 13.41 10.45 14.49 11.85C16.11 13.95 18.84 12.42 17.57 10.04C15.68 7.59 13.71 5.75 11.04 4.46Z" id="bq1Xcj68V"></path><path d="M24.84 34.03C25.25 30.92 25.92 28.17 25.71 24.99C25.33 23.05 22.85 22.72 21.99 24.5C20.96 27.52 20.82 30.98 20.69 34.43C20.63 37.26 20.85 40.45 21.41 43.36C22.06 45.65 25.24 45.44 24.95 42.87C24.38 39.96 24.79 36.86 24.84 34.03Z" id="avYerkOOW"></path><path d="M19.79 55.77C17.31 55.44 15.82 57.14 14.42 58.22C11.97 60.11 9.59 61.37 6.68 61.94C5 62.67 5.65 64.96 7.24 64.85C10.16 64.29 12.8 63.37 15.17 62.1C17.74 61.81 21.08 60.35 21.14 57.52C21.22 56.9 20.68 56.2 19.79 55.77Z" id="e6olWJNW38"></path><path d="M377.42 142.47L350.09 120.02L320.18 134.28L350.35 128.34L361.08 137.1L307.99 139.79L337.35 103.42L343.84 117.55L353.62 111.95L352.67 114.13L357.64 118.2L366.81 97.27L346.64 108.81L338.82 91.76L294.48 146.67L377.42 142.47Z" id="ale745Ggi"></path><path d="M375.65 85.01C378.03 82.07 380.97 78.86 384.05 76.62C386.29 75.51 384.62 72.15 382.38 73.26C379.02 74.94 375.94 77.17 373.28 79.55C370.61 81.92 367.25 85 366.55 88.5C366.41 90.31 368.08 92.27 369.76 91.44C372.56 90.04 373.97 87.24 375.65 85.01Z" id="fnCGA0mR"></path><path d="M520.09 18.24C522.56 20.17 524.59 22.15 527.44 23.58C529.3 24.24 530.84 22.26 529.75 20.62C527.66 18.2 524.76 16.33 521.85 14.46C519.44 12.98 516.59 11.54 513.79 10.55C511.49 9.95 510.06 12.8 512.41 13.84C515.21 14.84 517.68 16.76 520.09 18.24Z" id="h1uvGixzun"></path><path d="M552.57 21.36C554.61 19.77 557.35 16.76 557.03 14.12C556.86 12.8 554.95 11.7 553.74 12.75C552.14 14.28 551.04 16.2 549.89 17.68C548.3 19.22 546.21 20.36 544.45 20.58C541.82 20.91 541.76 24.04 544.45 24.15C547.52 23.77 550.1 23 552.57 21.36Z" id="b1UnX8VkMD"></path><path d="M458.51 24.97C460.49 22.94 460.88 18.88 462.31 16.03C463.74 13.18 465.61 10.27 467.48 7.36C468.63 5.88 466.17 3.96 465.01 5.44C462.26 8.45 459.96 11.41 457.65 14.37C455.78 17.28 453.58 21.12 454.89 24.52C455.55 26.22 457.74 25.95 458.51 24.97Z" id="gVPCLrZVB"></path><path d="M458.41 60.2C457.1 53.23 453.65 46.97 452.84 40.38C452.67 39.06 450.92 39.28 451.08 40.6C451.51 47.68 450.73 55.8 455.44 61.46C456.48 62.66 459.06 61.9 458.41 60.2Z" id="aYi1g9cg"></path><path d="M470.18 83.26C472.7 85.62 475.33 88.86 478.51 89.36C479.88 89.64 481.47 88.1 480.43 86.9C479.23 84.37 476.38 82.94 474.4 81.4C471.94 79.48 468.98 77.17 466.89 74.75C465.36 73.16 463.33 74.75 464.42 76.39C466.07 78.87 467.71 81.34 470.18 83.26Z" id="c7StFP7V6"></path><path d="M506.86 102.35C510.92 102.74 516.3 102.97 519.65 101.22C521.74 100.07 521.41 97.43 519.11 96.83C512.2 95.01 505.17 99.44 498.42 95.37C497 94.66 495.95 97.01 496.99 98.22C499.95 100.53 503.19 101.47 506.86 102.35Z" id="a5NAbWlMb"></path><path d="M529.59 58.97C528.1 57.82 526.02 58.97 525.74 60.34C525.3 63.96 526.61 67.37 526.11 70.55C525.34 75.1 522.75 79.44 520.55 83.27C519.51 85.63 521.92 87.12 523.07 85.64C528.57 79.61 537.64 66.45 529.59 58.97Z" id="a3EDh9BBK"></path><path d="M514.73 46.99C517.69 49.3 519.83 52.16 521.96 55.01C522.56 56.28 524.65 55.13 524.05 53.86C521.42 47.06 515.73 37.06 507 38.59C505.69 38.75 504.64 41.11 506.07 41.82C508.97 43.69 511.82 45.12 514.73 46.99Z" id="bJN0ND9xs"></path><path d="M492.02 36.43C493.01 37.2 494.17 35.72 493.18 34.95C488.19 30.66 481.39 29.72 475.4 31.79C474.52 31.9 474.8 34.1 476.17 34.37C481.6 35.04 487.2 33.46 492.02 36.43Z" id="eoDFD2P66"></path><path d="M458.01 31.72C459.76 31.5 459.44 28.86 457.63 28.64C454.06 28.64 450.11 29.13 446.49 28.68C443.36 28.62 440.12 27.69 437.05 28.07C434.47 28.83 434.41 31.96 436.28 32.62C442.42 35.43 451.53 33.41 458.01 31.72Z" id="c1PeZ4okP3"></path><path d="M411.67 46.36C414.42 43.35 417.28 41.21 420.57 39.02C422.22 37.92 420.52 35.01 418.82 35.67C415.42 36.98 413 39.06 410.14 41.2C406.9 43.83 403.66 46.46 400.97 49.91C399.81 51.39 401.51 54.3 403.6 53.15C406.95 51.4 408.87 48.94 411.67 46.36Z" id="ctBu7wwUQ"></path></defs><g><g><g><use xlink:href="#d1oHbhX4T" opacity="0.8" fill="#ee6c4d" fill-opacity="1"></use><g><use xlink:href="#d1oHbhX4T" opacity="0.8" fill-opacity="0" stroke="#000000" stroke-width="1" stroke-opacity="0"></use></g></g><g><use xlink:href="#h1ksnq6azW" opacity="0.8" fill="#ee6c4d" fill-opacity="1"></use><g><use xlink:href="#h1ksnq6azW" opacity="0.8" fill-opacity="0" stroke="#000000" stroke-width="1" stroke-opacity="0"></use></g></g><g><use xlink:href="#b1DXumKDi" opacity="0.8" fill="#ee6c4d" fill-opacity="1"></use><g><use xlink:href="#b1DXumKDi" opacity="0.8" fill-opacity="0" stroke="#000000" stroke-width="1" stroke-opacity="0"></use></g></g><g><use xlink:href="#al5BOg9iU" opacity="0.8" fill="#ee6c4d" fill-opacity="1"></use><g><use xlink:href="#al5BOg9iU" opacity="0.8" fill-opacity="0" stroke="#000000" stroke-width="1" stroke-opacity="0"></use></g></g><g><use xlink:href="#b1XZY9YOXJ" opacity="0.8" fill="#ee6c4d" fill-opacity="1"></use><g><use xlink:href="#b1XZY9YOXJ" opacity="0.8" fill-opacity="0" stroke="#000000" stroke-width="1" stroke-opacity="0"></use></g></g><g><use xlink:href="#ayrDoFNkj" opacity="0.8" fill="#ee6c4d" fill-opacity="1"></use><g><use xlink:href="#ayrDoFNkj" opacity="0.8" fill-opacity="0" stroke="#000000" stroke-width="1" stroke-opacity="0"></use></g></g><g><use xlink:href="#a2ts6PXm8S" opacity="0.8" fill="#ee6c4d" fill-opacity="1"></use><g><use xlink:href="#a2ts6PXm8S" opacity="0.8" fill-opacity="0" stroke="#000000" stroke-width="1" stroke-opacity="0"></use></g></g><g><use xlink:href="#ayX62w0B6" opacity="0.8" fill="#ee6c4d" fill-opacity="1"></use><g><use xlink:href="#ayX62w0B6" opacity="0.8" fill-opacity="0" stroke="#000000" stroke-width="1" stroke-opacity="0"></use></g></g><g><use xlink:href="#bRMTXcKj5" opacity="0.8" fill="#ee6c4d" fill-opacity="1"></use><g><use xlink:href="#bRMTXcKj5" opacity="0.8" fill-opacity="0" stroke="#000000" stroke-width="1" stroke-opacity="0"></use></g></g><g><use xlink:href="#aeb4c09IC" opacity="0.8" fill="#ee6c4d" fill-opacity="1"></use><g><use xlink:href="#aeb4c09IC" opacity="0.8" fill-opacity="0" stroke="#000000" stroke-width="1" stroke-opacity="0"></use></g></g><g><use xlink:href="#aM4DhQyVs" opacity="0.8" fill="#ee6c4d" fill-opacity="1"></use><g><use xlink:href="#aM4DhQyVs" opacity="0.8" fill-opacity="0" stroke="#000000" stroke-width="1" stroke-opacity="0"></use></g></g><g><use xlink:href="#bgsKWPWFm" opacity="0.8" fill="#ee6c4d" fill-opacity="1"></use><g><use xlink:href="#bgsKWPWFm" opacity="0.8" fill-opacity="0" stroke="#000000" stroke-width="1" stroke-opacity="0"></use></g></g><g><use xlink:href="#b5KFFWyXZ" opacity="0.8" fill="#ee6c4d" fill-opacity="1"></use><g><use xlink:href="#b5KFFWyXZ" opacity="0.8" fill-opacity="0" stroke="#000000" stroke-width="1" stroke-opacity="0"></use></g></g><g><use xlink:href="#a1yocjWHz" opacity="0.8" fill="#ee6c4d" fill-opacity="1"></use><g><use xlink:href="#a1yocjWHz" opacity="0.8" fill-opacity="0" stroke="#000000" stroke-width="1" stroke-opacity="0"></use></g></g><g><use xlink:href="#b1eavhFJgq" opacity="0.8" fill="#ee6c4d" fill-opacity="1"></use><g><use xlink:href="#b1eavhFJgq" opacity="0.8" fill-opacity="0" stroke="#000000" stroke-width="1" stroke-opacity="0"></use></g></g><g><use xlink:href="#c1Cd2gIDcv" opacity="0.8" fill="#ee6c4d" fill-opacity="1"></use><g><use xlink:href="#c1Cd2gIDcv" opacity="0.8" fill-opacity="0" stroke="#000000" stroke-width="1" stroke-opacity="0"></use></g></g><g><use xlink:href="#abdDfuRSB" opacity="0.8" fill="#ee6c4d" fill-opacity="1"></use><g><use xlink:href="#abdDfuRSB" opacity="0.8" fill-opacity="0" stroke="#000000" stroke-width="1" stroke-opacity="0"></use></g></g><g><use xlink:href="#d21FV42aeK" opacity="0.8" fill="#ee6c4d" fill-opacity="1"></use><g><use xlink:href="#d21FV42aeK" opacity="0.8" fill-opacity="0" stroke="#000000" stroke-width="1" stroke-opacity="0"></use></g></g><g><use xlink:href="#booIZ1ik9" opacity="0.8" fill="#ee6c4d" fill-opacity="1"></use><g><use xlink:href="#booIZ1ik9" opacity="0.8" fill-opacity="0" stroke="#000000" stroke-width="1" stroke-opacity="0"></use></g></g><g><use xlink:href="#d1lRdeDll" opacity="0.8" fill="#ee6c4d" fill-opacity="1"></use><g><use xlink:href="#d1lRdeDll" opacity="0.8" fill-opacity="0" stroke="#000000" stroke-width="1" stroke-opacity="0"></use></g></g><g><use xlink:href="#h3QgmUbGce" opacity="0.8" fill="#ee6c4d" fill-opacity="1"></use><g><use xlink:href="#h3QgmUbGce" opacity="0.8" fill-opacity="0" stroke="#000000" stroke-width="1" stroke-opacity="0"></use></g></g><g><use xlink:href="#a1ptQHv2K" opacity="0.8" fill="#ee6c4d" fill-opacity="1"></use><g><use xlink:href="#a1ptQHv2K" opacity="0.8" fill-opacity="0" stroke="#000000" stroke-width="1" stroke-opacity="0"></use></g></g><g><use xlink:href="#c4TNoWbq9" opacity="0.8" fill="#ee6c4d" fill-opacity="1"></use><g><use xlink:href="#c4TNoWbq9" opacity="0.8" fill-opacity="0" stroke="#000000" stroke-width="1" stroke-opacity="0"></use></g></g><g><use xlink:href="#bivXvue9o" opacity="0.8" fill="#ee6c4d" fill-opacity="1"></use><g><use xlink:href="#bivXvue9o" opacity="0.8" fill-opacity="0" stroke="#000000" stroke-width="1" stroke-opacity="0"></use></g></g><g><use xlink:href="#bq1Xcj68V" opacity="0.8" fill="#ee6c4d" fill-opacity="1"></use><g><use xlink:href="#bq1Xcj68V" opacity="0.8" fill-opacity="0" stroke="#000000" stroke-width="1" stroke-opacity="0"></use></g></g><g><use xlink:href="#avYerkOOW" opacity="0.8" fill="#ee6c4d" fill-opacity="1"></use><g><use xlink:href="#avYerkOOW" opacity="0.8" fill-opacity="0" stroke="#000000" stroke-width="1" stroke-opacity="0"></use></g></g><g><use xlink:href="#e6olWJNW38" opacity="0.8" fill="#ee6c4d" fill-opacity="1"></use><g><use xlink:href="#e6olWJNW38" opacity="0.8" fill-opacity="0" stroke="#000000" stroke-width="1" stroke-opacity="0"></use></g></g><g><use xlink:href="#ale745Ggi" opacity="0.8" fill="#ee6c4d" fill-opacity="1"></use><g><use xlink:href="#ale745Ggi" opacity="0.8" fill-opacity="0" stroke="#000000" stroke-width="1" stroke-opacity="0"></use></g></g><g><use xlink:href="#fnCGA0mR" opacity="0.8" fill="#ee6c4d" fill-opacity="1"></use><g><use xlink:href="#fnCGA0mR" opacity="0.8" fill-opacity="0" stroke="#000000" stroke-width="1" stroke-opacity="0"></use></g></g><g><use xlink:href="#h1uvGixzun" opacity="0.8" fill="#ee6c4d" fill-opacity="1"></use><g><use xlink:href="#h1uvGixzun" opacity="0.8" fill-opacity="0" stroke="#000000" stroke-width="1" stroke-opacity="0"></use></g></g><g><use xlink:href="#b1UnX8VkMD" opacity="0.8" fill="#ee6c4d" fill-opacity="1"></use><g><use xlink:href="#b1UnX8VkMD" opacity="0.8" fill-opacity="0" stroke="#000000" stroke-width="1" stroke-opacity="0"></use></g></g><g><use xlink:href="#gVPCLrZVB" opacity="0.8" fill="#ee6c4d" fill-opacity="1"></use><g><use xlink:href="#gVPCLrZVB" opacity="0.8" fill-opacity="0" stroke="#000000" stroke-width="1" stroke-opacity="0"></use></g></g><g><use xlink:href="#aYi1g9cg" opacity="0.8" fill="#ee6c4d" fill-opacity="1"></use><g><use xlink:href="#aYi1g9cg" opacity="0.8" fill-opacity="0" stroke="#000000" stroke-width="1" stroke-opacity="0"></use></g></g><g><use xlink:href="#c7StFP7V6" opacity="0.8" fill="#ee6c4d" fill-opacity="1"></use><g><use xlink:href="#c7StFP7V6" opacity="0.8" fill-opacity="0" stroke="#000000" stroke-width="1" stroke-opacity="0"></use></g></g><g><use xlink:href="#a5NAbWlMb" opacity="0.8" fill="#ee6c4d" fill-opacity="1"></use><g><use xlink:href="#a5NAbWlMb" opacity="0.8" fill-opacity="0" stroke="#000000" stroke-width="1" stroke-opacity="0"></use></g></g><g><use xlink:href="#a3EDh9BBK" opacity="0.8" fill="#ee6c4d" fill-opacity="1"></use><g><use xlink:href="#a3EDh9BBK" opacity="0.8" fill-opacity="0" stroke="#000000" stroke-width="1" stroke-opacity="0"></use></g></g><g><use xlink:href="#bJN0ND9xs" opacity="0.8" fill="#ee6c4d" fill-opacity="1"></use><g><use xlink:href="#bJN0ND9xs" opacity="0.8" fill-opacity="0" stroke="#000000" stroke-width="1" stroke-opacity="0"></use></g></g><g><use xlink:href="#eoDFD2P66" opacity="0.8" fill="#ee6c4d" fill-opacity="1"></use><g><use xlink:href="#eoDFD2P66" opacity="0.8" fill-opacity="0" stroke="#000000" stroke-width="1" stroke-opacity="0"></use></g></g><g><use xlink:href="#c1PeZ4okP3" opacity="0.8" fill="#ee6c4d" fill-opacity="1"></use><g><use xlink:href="#c1PeZ4okP3" opacity="0.8" fill-opacity="0" stroke="#000000" stroke-width="1" stroke-opacity="0"></use></g></g><g><use xlink:href="#ctBu7wwUQ" opacity="0.8" fill="#ee6c4d" fill-opacity="1"></use><g><use xlink:href="#ctBu7wwUQ" opacity="0.8" fill-opacity="0" stroke="#000000" stroke-width="1" stroke-opacity="0"></use></g></g></g></g></svg>