<svg id="Layer_1" data-name="Layer 1" xmlns="http://www.w3.org/2000/svg" viewBox="0 0 200 200">
  <title>susu-circle-red</title>
  <g>
    <circle cx="100.14" cy="99.71" r="97.09" style="fill: #c74341"/>
    <g>
      <path d="M35.26,110.32c.13,2.38,1.74,4.32,5.48,4.32,2.77,0,5.48-1.22,5.48-4,0-.71,0-2.19-4.45-3.67l-5.22-1.74c-9.92-2.71-11.6-9-11.6-13.08,0-8.12,6.64-13.6,15.53-13.6s15.27,5.09,15.27,13.85H45c0-2.38-1.35-4.12-4.64-4.12-2.9,0-4.7,1.42-4.7,3.54,0,.84.26,2.45,4.12,3.61l5.09,1.61c11.66,3.61,12.31,10.37,12.31,13.53,0,9.79-9,13.53-16.43,13.53-9.92,0-16.37-5.41-16.37-13.79Z" style="fill: #f4f4f3"/>
      <path d="M61.17,107.36V79.14H72v28.22a6.7,6.7,0,0,0,13.4,0V79.14H96.22v28.22c0,10.25-8.31,16.75-17.53,16.75S61.17,117.61,61.17,107.36Z" style="fill: #f4f4f3"/>
      <path d="M111.5,110.32c.13,2.38,1.74,4.32,5.48,4.32,2.77,0,5.48-1.22,5.48-4,0-.71,0-2.19-4.45-3.67l-5.22-1.74c-9.92-2.71-11.6-9-11.6-13.08,0-8.12,6.64-13.6,15.53-13.6S132,83.65,132,92.41H121.23c0-2.38-1.35-4.12-4.64-4.12-2.9,0-4.7,1.42-4.7,3.54,0,.84.26,2.45,4.12,3.61l5.09,1.61c11.66,3.61,12.31,10.37,12.31,13.53,0,9.79-9,13.53-16.43,13.53-9.92,0-16.37-5.41-16.37-13.79Z" style="fill: #f4f4f3"/>
      <path d="M137.61,107.36V79.14h10.83v28.22a6.7,6.7,0,0,0,13.4,0V79.14h10.83v28.22c0,10.25-8.31,16.75-17.53,16.75S137.61,117.61,137.61,107.36Z" style="fill: #f4f4f3"/>
    </g>
  </g>
</svg>
