<svg id="Layer_1" data-name="Layer 1" xmlns="http://www.w3.org/2000/svg" viewBox="0 0 81.67 24">
  <title>susu-plain</title>
  <g>
    <path d="M6.15,15.76c.06,1.11.81,2,2.54,2,1.29,0,2.54-.57,2.54-1.86,0-.33,0-1-2.07-1.71L6.75,13.4C2.14,12.14,1.36,9.21,1.36,7.32,1.36,3.55,4.44,1,8.57,1s7.09,2.36,7.09,6.43h-5c0-1.11-.63-1.92-2.15-1.92-1.35,0-2.19.66-2.19,1.65,0,.39.12,1.14,1.92,1.68l2.36.75c5.42,1.68,5.72,4.82,5.72,6.29,0,4.55-4.16,6.29-7.63,6.29-4.61,0-7.6-2.51-7.6-6.41Z" style="fill: #f3f3f3"/>
    <path d="M18,14.38V1.27h5V14.38a3.11,3.11,0,0,0,6.23,0V1.27h5V14.38c0,4.76-3.86,7.78-8.14,7.78S18,19.14,18,14.38Z" style="fill: #f3f3f3"/>
    <path d="M41.1,15.76c.06,1.11.81,2,2.54,2,1.29,0,2.54-.57,2.54-1.86,0-.33,0-1-2.07-1.71L41.7,13.4c-4.61-1.26-5.39-4.19-5.39-6.08C36.32,3.55,39.4,1,43.53,1s7.09,2.36,7.09,6.43h-5c0-1.11-.63-1.92-2.15-1.92-1.35,0-2.19.66-2.19,1.65,0,.39.12,1.14,1.92,1.68l2.36.75c5.42,1.68,5.72,4.82,5.72,6.29,0,4.55-4.16,6.29-7.63,6.29-4.61,0-7.6-2.51-7.6-6.41Z" style="fill: #f3f3f3"/>
    <path d="M53,14.38V1.27h5V14.38a3.11,3.11,0,0,0,6.23,0V1.27h5V14.38c0,4.76-3.86,7.78-8.14,7.78S53,19.14,53,14.38Z" style="fill: #f3f3f3"/>
    <circle cx="74.41" cy="18.42" r="3.75" style="fill: #f3f3f3"/>
  </g>
</svg>
